<?xml version="1.0" encoding="iso-8859-1"?>
<!-- Generator: Adobe Illustrator 17.1.0, SVG Export Plug-In . SVG Version: 6.00 Build 0)  -->
<!DOCTYPE svg PUBLIC "-//W3C//DTD SVG 1.1//EN" "http://www.w3.org/Graphics/SVG/1.1/DTD/svg11.dtd">
<svg version="1.1" id="Capa_1" xmlns="http://www.w3.org/2000/svg" xmlns:xlink="http://www.w3.org/1999/xlink" x="0px" y="0px"
	 viewBox="0 0 296 296" style="enable-background:new 0 0 296 296;" xml:space="preserve">
<g>
	<path d="M248.616,92.435L247,92.432V80.263c0-26.237-21.565-48.04-47.802-48.04H97.468C71.23,32.223,49,54.025,49,80.263v11.714
		l-1.616-0.004C21.146,91.912,0,113.33,0,139.567v75.936c0,26.237,21.529,47.753,47.765,47.813l200.771,0.461
		C274.774,263.838,296,242.42,296,216.183v-75.934C296,114.012,274.853,92.496,248.616,92.435z M197,188.223h-39v39h-20v-39H99v-20
		h39v-40h20v40h39V188.223z M226,92.055L70,92.023V80.263c0-15.191,12.276-28.04,27.468-28.04h101.73
		c15.191,0,26.802,12.849,26.802,28.04V92.055z"/>
</g>
<g>
</g>
<g>
</g>
<g>
</g>
<g>
</g>
<g>
</g>
<g>
</g>
<g>
</g>
<g>
</g>
<g>
</g>
<g>
</g>
<g>
</g>
<g>
</g>
<g>
</g>
<g>
</g>
<g>
</g>
</svg>
