<?xml version="1.0" encoding="iso-8859-1"?>
<!-- Generator: Adobe Illustrator 19.0.0, SVG Export Plug-In . SVG Version: 6.00 Build 0)  -->
<svg version="1.1" id="Capa_1" xmlns="http://www.w3.org/2000/svg" xmlns:xlink="http://www.w3.org/1999/xlink" x="0px" y="0px"
	 viewBox="0 0 60 60" style="enable-background:new 0 0 60 60;" xml:space="preserve">
<g>
	<path d="M59.967,27.967C59.967,20.816,54.15,15,47,15c-3.147,0-6.034,1.129-8.283,3h-6.751V5.5c0-1.93,1.57-3.5,3.5-3.5
		s3.5,1.57,3.5,3.5V8c0,2.757,2.243,5,5,5s5-2.243,5-5V0h-2v8c0,1.654-1.346,3-3,3s-3-1.346-3-3V5.5c0-3.032-2.468-5.5-5.5-5.5
		s-5.5,2.468-5.5,5.5V18h-8.765c-2.236-1.832-5.092-2.934-8.202-2.934c-7.15,0-12.967,5.816-12.967,12.967
		c0,2.479,0.712,4.79,1.923,6.762L0.773,52.043C0.773,56.431,4.343,60,8.73,60c3.541,0,6.604-2.279,7.613-5.645l3.423-10.375
		c1.037,1.801,2.977,3.019,5.2,3.019c2.086,0,3.924-1.071,5-2.69c1.076,1.62,2.914,2.69,5,2.69c2.329,0,4.348-1.337,5.342-3.281
		l3.5,10.61C44.826,57.721,47.89,60,51.431,60c4.388,0,7.957-3.569,7.955-8.025l-1.201-17.478
		C59.31,32.576,59.967,30.349,59.967,27.967z M19.967,29.285c0,0.945-0.77,1.715-1.715,1.715h-2.285v2.285
		c0,0.945-0.77,1.715-1.715,1.715h-2.57c-0.945,0-1.715-0.77-1.715-1.715V31H7.682c-0.945,0-1.715-0.77-1.715-1.715v-2.57
		C5.967,25.77,6.736,25,7.682,25h2.285v-2.285c0-0.945,0.77-1.715,1.715-1.715h2.57c0.945,0,1.715,0.77,1.715,1.715V25h2.285
		c0.945,0,1.715,0.77,1.715,1.715V29.285z M46.967,18.5c1.93,0,3.5,1.57,3.5,3.5s-1.57,3.5-3.5,3.5s-3.5-1.57-3.5-3.5
		S45.037,18.5,46.967,18.5z M28.886,41.802l-0.001,0.006C28.51,43.628,26.896,45,24.967,45c-2.206,0-4-1.794-4-4
		c0-0.986,0.372-1.879,0.966-2.577l0.24-0.241c0.57-0.572,1.271-0.951,2.024-1.105c0.25-0.049,0.506-0.078,0.77-0.078
		c0.275,0,0.544,0.028,0.803,0.081c0.018,0.003,0.033,0.011,0.051,0.015c0.242,0.053,0.477,0.123,0.7,0.218
		c0.009,0.004,0.016,0.01,0.025,0.013c0.228,0.098,0.446,0.216,0.65,0.353c0.03,0.02,0.054,0.046,0.084,0.067
		c0.175,0.125,0.343,0.259,0.496,0.409c0.079,0.079,0.144,0.17,0.216,0.255c0.088,0.102,0.18,0.2,0.257,0.311
		c0.121,0.176,0.224,0.365,0.316,0.561c0.013,0.028,0.031,0.052,0.044,0.081c0.205,0.464,0.327,0.976,0.343,1.517l0.007,0.209
		C28.952,41.332,28.933,41.572,28.886,41.802z M28.967,25c-0.553,0-1-0.447-1-1s0.447-1,1-1h3c0.553,0,1,0.447,1,1s-0.447,1-1,1
		H28.967z M34.967,45c-1.929,0-3.543-1.372-3.918-3.192l-0.001-0.006c-0.047-0.231-0.067-0.47-0.072-0.713l0.007-0.214
		c0.017-0.541,0.139-1.052,0.345-1.515c0.012-0.026,0.028-0.048,0.04-0.073c0.093-0.198,0.198-0.389,0.321-0.568
		c0.071-0.101,0.155-0.19,0.235-0.284c0.079-0.094,0.151-0.194,0.239-0.281c0.142-0.14,0.3-0.263,0.462-0.381
		c0.04-0.03,0.075-0.066,0.117-0.094c0.194-0.13,0.402-0.24,0.617-0.335c0.02-0.009,0.037-0.022,0.057-0.03
		c0.217-0.092,0.445-0.159,0.68-0.211c0.024-0.005,0.046-0.016,0.07-0.021C34.424,37.028,34.692,37,34.967,37
		c0.244,0,0.479,0.03,0.711,0.072c0.076,0.014,0.151,0.032,0.226,0.05c0.157,0.038,0.31,0.087,0.46,0.143
		c0.076,0.029,0.153,0.053,0.227,0.086c0.194,0.087,0.381,0.187,0.557,0.303c0.077,0.051,0.147,0.111,0.221,0.167
		c0.105,0.079,0.207,0.161,0.303,0.25c0.081,0.075,0.158,0.153,0.232,0.234c0.076,0.083,0.146,0.171,0.215,0.261
		c0.071,0.093,0.146,0.183,0.209,0.282c0.056,0.087,0.099,0.182,0.148,0.273c0.045,0.084,0.096,0.163,0.135,0.25l0.06,0.133
		c0.187,0.463,0.296,0.966,0.296,1.495C38.967,43.206,37.173,45,34.967,45z M40.467,31c-1.93,0-3.5-1.57-3.5-3.5s1.57-3.5,3.5-3.5
		s3.5,1.57,3.5,3.5S42.396,31,40.467,31z M46.967,36.5c-1.93,0-3.5-1.57-3.5-3.5s1.57-3.5,3.5-3.5s3.5,1.57,3.5,3.5
		S48.896,36.5,46.967,36.5z M53.467,31c-1.93,0-3.5-1.57-3.5-3.5s1.57-3.5,3.5-3.5s3.5,1.57,3.5,3.5S55.396,31,53.467,31z"/>
	<circle cx="53.467" cy="27.5" r="1.5"/>
	<circle cx="46.967" cy="22" r="1.5"/>
	<circle cx="40.467" cy="27.5" r="1.5"/>
	<circle cx="46.967" cy="33" r="1.5"/>
	<polygon points="13.967,23 11.967,23 11.967,27 7.967,27 7.967,29 11.967,29 11.967,33 13.967,33 13.967,29 17.967,29 17.967,27 
		13.967,27 	"/>
</g>
<g>
</g>
<g>
</g>
<g>
</g>
<g>
</g>
<g>
</g>
<g>
</g>
<g>
</g>
<g>
</g>
<g>
</g>
<g>
</g>
<g>
</g>
<g>
</g>
<g>
</g>
<g>
</g>
<g>
</g>
</svg>
